<?xml version="1.0" encoding="utf-8"?>
<!-- Generator: Adobe Illustrator 26.0.1, SVG Export Plug-In . SVG Version: 6.00 Build 0)  -->
<svg version="1.1" id="Layer_1" xmlns="http://www.w3.org/2000/svg" xmlns:xlink="http://www.w3.org/1999/xlink" x="0px" y="0px"
	 viewBox="0 0 16 16" style="enable-background:new 0 0 16 16;" xml:space="preserve">
<style type="text/css">
	.st0{fill:#595959;}
	.st1{fill:#FFC107;}
</style>
<path d="M8,15c-3.9,0-7-3.1-7-7s3.1-7,7-7s7,3.1,7,7S11.9,15,8,15z M8,16c4.4,0,8-3.6,8-8s-3.6-8-8-8S0,3.6,0,8S3.6,16,8,16z"/>
<path class="st0" d="M17-0.5C17-0.4,16.9-0.4,17-0.5l-7,9L5.7,4.3C5.1,3.7,4.1,3.7,3.6,4.4C3,4.9,3,5.8,3.6,6.4l5.3,5.3
	c0.6,0.6,1.5,0.6,2.1,0c0,0,0,0,0,0l8.1-10.1c0.6-0.6,0.6-1.6-0.1-2.1C18.5-1,17.6-1,17-0.5z"/>
<path class="st1" d="M16.9-1.4C16.8-1.4,16.8-1.3,16.9-1.4L9.3,8.2L4.8,3.7C4.1,3.1,3.1,3.1,2.5,3.8C1.9,4.4,1.9,5.4,2.5,6l5.7,5.7
	c0.6,0.6,1.7,0.6,2.3,0c0,0,0,0,0,0l8.6-10.8c0.6-0.6,0.6-1.7-0.1-2.3C18.5-2,17.5-2,16.9-1.4z"/>
</svg>
