<svg id="Layer_1" data-name="Layer 1" xmlns="http://www.w3.org/2000/svg" viewBox="0 0 19.81 17.84"><defs><style>.cls-1{fill:#ffc107;}</style></defs><path d="M8,15a7,7,0,1,1,7-7A7,7,0,0,1,8,15Zm0,1A8,8,0,1,0,0,8,8,8,0,0,0,8,16Z" transform="translate(0 1.84)"/><path d="M17.23-.73a.08.08,0,0,0,0,0l-7,8.93L6,4A1.51,1.51,0,0,0,3.82,6.15l5.34,5.34a1.51,1.51,0,0,0,2.14,0l0,0L19.39,1.38a1.52,1.52,0,0,0-.05-2.14A1.52,1.52,0,0,0,17.23-.73Z" transform="translate(0 1.84)"/><path class="cls-1" d="M16.85-1.37l0,.05L9.3,8.24,4.77,3.72A1.62,1.62,0,0,0,2.48,6L8.2,11.73a1.62,1.62,0,0,0,2.29,0l0,0L19.17.9a1.62,1.62,0,0,0-.06-2.29A1.61,1.61,0,0,0,16.85-1.37Z" transform="translate(0 1.84)"/></svg>